<svg xmlns="http://www.w3.org/2000/svg" viewBox="0 0 14 14">
    <path d="M8.88794 8.89541C9.93189 7.85145 9.93125 6.15823 8.88651 5.11349C7.84177 4.06875 6.14855 4.06811 5.1046 5.11206C4.06065 6.15602 4.06128 7.84924 5.10603 8.89398C6.15077 9.93872 7.84399 9.93936 8.88794 8.89541ZM3.93819 3.94566C4.78245 3.1014 5.88847 2.68327 6.99464 2.68368L6.99363 0.00794197C5.20731 -0.000206533 3.41377 0.686737 2.04652 2.05399C-0.687981 4.78849 -0.678833 9.22066 2.05026 11.9497L3.9405 10.0595C2.25071 8.36971 2.24967 5.63418 3.93819 3.94566ZM10.0595 3.9405C11.7493 5.63029 11.7503 8.36582 10.0618 10.0543C9.21756 10.8986 8.11154 11.3167 6.9979 11.3238L6.99891 13.9995C8.7927 14.0002 10.5788 13.3207 11.946 11.9535C14.6805 9.21898 14.6788 4.77934 11.9498 2.05025L10.0595 3.9405Z" />
</svg>

