<svg xmlns="http://www.w3.org/2000/svg" fill="none" viewBox="0 0 32 32">
    <path fill="url(#a)" d="M10.058 21.14 4.214 30h14.91l-.414-6.555-8.652-2.304Z"></path>
    <path fill="url(#b)" d="M10.058 21.14 4.214 30h14.91l-.414-6.555-8.652-2.304Z"></path>
    <g filter="url(#c)">
        <circle cx="16.811" cy="12.766" r="6.43" fill="url(#d)"></circle>
    </g>
    <path fill="url(#e)" d="M5.12 18.887c-1.609-1.289-2.607-2.82-3.246-4.123-.441-.899-.079-1.856.762-2.4 2.68-1.961 5.952-2.266 8.172-1.883l12.695 3.406c2.965.914 4.822 3.406 5.886 5.537.464.928.18 2.053-.686 2.624-1.887 1.24-3.838 1.778-5.607 1.975-1.208.135-2.422-.06-3.597-.372L9.276 20.93c-1.507-.402-2.947-1.075-4.156-2.043Z"></path>
    <path fill="url(#f)" d="M5.12 18.887c-1.609-1.289-2.607-2.82-3.246-4.123-.441-.899-.079-1.856.762-2.4 2.68-1.961 5.952-2.266 8.172-1.883l12.695 3.406c2.965.914 4.822 3.406 5.886 5.537.464.928.18 2.053-.686 2.624-1.887 1.24-3.838 1.778-5.607 1.975-1.208.135-2.422-.06-3.597-.372L9.276 20.93c-1.507-.402-2.947-1.075-4.156-2.043Z"></path>
    <circle cx="20.686" cy="9.773" r=".969" fill="url(#g)"></circle>
    <ellipse cx="4.438" cy="12.105" fill="url(#h)" rx="1.251" ry=".373" transform="rotate(-28.067 4.438 12.105)"></ellipse>
    <ellipse cx="7.2" cy="12.841" fill="url(#i)" rx="1.277" ry=".655" transform="rotate(-19.675 7.2 12.841)"></ellipse>
    <ellipse cx="11.312" cy="13.967" fill="url(#j)" rx="1.285" ry=".842" transform="rotate(-3.605 11.312 13.967)"></ellipse>
    <ellipse cx="16.152" cy="15.267" fill="url(#k)" rx="1.285" ry=".894" transform="rotate(13.066 16.152 15.267)"></ellipse>
    <ellipse cx="21.015" cy="16.572" fill="url(#l)" rx="1.285" ry=".847" transform="rotate(35.225 21.015 16.572)"></ellipse>
    <ellipse cx="25.125" cy="17.657" fill="url(#m)" rx="1.285" ry=".654" transform="rotate(49.282 25.125 17.657)"></ellipse>
    <ellipse cx="27.87" cy="18.384" fill="url(#n)" rx="1.265" ry=".355" transform="rotate(57.814 27.87 18.384)"></ellipse>
    <path fill="url(#o)" d="M1.874 14.764c.64 1.303 1.637 2.834 3.246 4.123 1.209.968 2.65 1.641 4.156 2.043L19.5 23.65c1.175.313 2.39.508 3.597.373 1.77-.197 3.72-.735 5.607-1.975.46-.304.757-.764.863-1.268L1.8 13.36c-.168.438-.16.93.074 1.404Z"></path>
    <path fill="url(#p)" d="M1.874 14.764c.64 1.303 1.637 2.834 3.246 4.123 1.209.968 2.65 1.641 4.156 2.043L19.5 23.65c1.175.313 2.39.508 3.597.373 1.77-.197 3.72-.735 5.607-1.975.46-.304.757-.764.863-1.268L1.8 13.36c-.168.438-.16.93.074 1.404Z"></path>
    <path fill="url(#q)" d="M1.874 14.764c.64 1.303 1.637 2.834 3.246 4.123 1.209.968 2.65 1.641 4.156 2.043L19.5 23.65c1.175.313 2.39.508 3.597.373 1.77-.197 3.72-.735 5.607-1.975.46-.304.757-.764.863-1.268L1.8 13.36c-.168.438-.16.93.074 1.404Z"></path>
    <path fill="url(#r)" d="M1.874 14.764c.64 1.303 1.637 2.834 3.246 4.123 1.209.968 2.65 1.641 4.156 2.043L19.5 23.65c1.175.313 2.39.508 3.597.373 1.77-.197 3.72-.735 5.607-1.975.46-.304.757-.764.863-1.268L1.8 13.36c-.168.438-.16.93.074 1.404Z"></path>
    <defs>
        <radialGradient id="a" cx="0" cy="0" r="1" gradientTransform="rotate(107.317 -.17 18.52) scale(17.2179 12.9134)" gradientUnits="userSpaceOnUse">
            <stop stop-color="#FFE940"></stop>
            <stop offset="1" stop-color="#EAC82D"></stop>
        </radialGradient>
        <radialGradient id="d" cx="0" cy="0" r="1" gradientTransform="rotate(-139.399 12.633 3.07) scale(9.13867)" gradientUnits="userSpaceOnUse">
            <stop stop-color="#66F5FF"></stop>
            <stop offset="1" stop-color="#3BA9E3"></stop>
        </radialGradient>
        <radialGradient id="e" cx="0" cy="0" r="1" gradientTransform="matrix(-4.62496 -21.62506 62.2698 -13.31766 22.648 20.07)" gradientUnits="userSpaceOnUse">
            <stop stop-color="#F7F6F8"></stop>
            <stop offset="1" stop-color="#808081"></stop>
        </radialGradient>
        <radialGradient id="f" cx="0" cy="0" r="1" gradientTransform="rotate(154.243 8.028 7.274) scale(15.7965 54.0343)" gradientUnits="userSpaceOnUse">
            <stop offset=".454" stop-color="#706F70" stop-opacity="0"></stop>
            <stop offset=".927" stop-color="#706F70"></stop>
        </radialGradient>
        <radialGradient id="g" cx="0" cy="0" r="1" gradientTransform="rotate(-31.688 28.043 -29.578) scale(1.89839 4.00511)" gradientUnits="userSpaceOnUse">
            <stop offset=".209" stop-color="#fff" stop-opacity="0"></stop>
            <stop offset="1" stop-color="#fff"></stop>
        </radialGradient>
        <radialGradient id="h" cx="0" cy="0" r="1" gradientTransform="matrix(-.06058 .84422 -1.68788 -.12111 4.508 11.704)" gradientUnits="userSpaceOnUse">
            <stop offset=".45" stop-color="#473B51"></stop>
            <stop offset="1" stop-color="#383838"></stop>
        </radialGradient>
        <radialGradient id="i" cx="0" cy="0" r="1" gradientTransform="rotate(56.399 -8.054 12.228) scale(1.22813 1.47425)" gradientUnits="userSpaceOnUse">
            <stop stop-color="#5A5162"></stop>
            <stop offset="1" stop-color="#372C40"></stop>
        </radialGradient>
        <radialGradient id="j" cx="0" cy="0" r="1" gradientTransform="matrix(1.5629 1.19042 -1.33636 1.75452 10.425 13.391)" gradientUnits="userSpaceOnUse">
            <stop stop-color="#655771"></stop>
            <stop offset="1" stop-color="#32273C"></stop>
        </radialGradient>
        <radialGradient id="k" cx="0" cy="0" r="1" gradientTransform="matrix(2.79283 .22584 -.21054 2.60363 14.857 15.064)" gradientUnits="userSpaceOnUse">
            <stop stop-color="#655771"></stop>
            <stop offset="1" stop-color="#32273C"></stop>
        </radialGradient>
        <radialGradient id="l" cx="0" cy="0" r="1" gradientTransform="matrix(2.2777 -.56684 .68624 2.7575 20.016 16.96)" gradientUnits="userSpaceOnUse">
            <stop stop-color="#6D5A7E"></stop>
            <stop offset="1" stop-color="#3E2D4C"></stop>
        </radialGradient>
        <radialGradient id="m" cx="0" cy="0" r="1" gradientTransform="matrix(.0684 -1.22391 1.71863 .09605 25.171 18.285)" gradientUnits="userSpaceOnUse">
            <stop stop-color="#736282"></stop>
            <stop offset="1" stop-color="#4B385B"></stop>
        </radialGradient>
        <radialGradient id="n" cx="0" cy="0" r="1" gradientTransform="matrix(.064 -.86436 1.28151 .0949 27.891 18.79)" gradientUnits="userSpaceOnUse">
            <stop stop-color="#746383"></stop>
            <stop offset="1" stop-color="#564366"></stop>
        </radialGradient>
        <radialGradient id="o" cx="0" cy="0" r="1" gradientTransform="matrix(-12.31248 -8.0589 4.06583 -6.21181 26.523 24.067)" gradientUnits="userSpaceOnUse">
            <stop stop-color="#7B7180"></stop>
            <stop offset="1" stop-color="#817A86"></stop>
        </radialGradient>
        <radialGradient id="p" cx="0" cy="0" r="1" gradientTransform="rotate(167.056 8.882 10.254) scale(15.9041 41.4161)" gradientUnits="userSpaceOnUse">
            <stop offset=".632" stop-color="#817A82" stop-opacity="0"></stop>
            <stop offset="1" stop-color="#817A82"></stop>
        </radialGradient>
        <radialGradient id="q" cx="0" cy="0" r="1" gradientTransform="rotate(15.815 -51.932 58.894) scale(15.1355 2.11479)" gradientUnits="userSpaceOnUse">
            <stop stop-color="#B8B2BD"></stop>
            <stop offset="1" stop-color="#B8B2BD" stop-opacity="0"></stop>
        </radialGradient>
        <radialGradient id="r" cx="0" cy="0" r="1" gradientTransform="rotate(-80.239 21.51 3.453) scale(4.05512 11.8053)" gradientUnits="userSpaceOnUse">
            <stop stop-color="#9F8A7A"></stop>
            <stop offset="1" stop-color="#9F8A7A" stop-opacity="0"></stop>
        </radialGradient>
        <linearGradient id="b" x1="14.28" x2="14.147" y1="22.188" y2="22.695" gradientUnits="userSpaceOnUse">
            <stop stop-color="#F9D230"></stop>
            <stop offset="1" stop-color="#F9D230" stop-opacity="0"></stop>
        </linearGradient>
        <filter id="c" width="13.359" height="13.109" x="10.382" y="6.336" color-interpolation-filters="sRGB" filterUnits="userSpaceOnUse">
            <feFlood flood-opacity="0" result="BackgroundImageFix"></feFlood>
            <feBlend in="SourceGraphic" in2="BackgroundImageFix" result="shape"></feBlend><feColorMatrix in="SourceAlpha" result="hardAlpha" values="0 0 0 0 0 0 0 0 0 0 0 0 0 0 0 0 0 0 127 0">
            </feColorMatrix><feOffset dx=".5" dy=".25"></feOffset>
            <feGaussianBlur stdDeviation=".5"></feGaussianBlur>
            <feComposite in2="hardAlpha" k2="-1" k3="1" operator="arithmetic"></feComposite><feColorMatrix values="0 0 0 0 0.360784 0 0 0 0 0.623529 0 0 0 0 0.815686 0 0 0 1 0"></feColorMatrix>
            <feBlend in2="shape" result="effect1_innerShadow_18_13115"></feBlend>
        </filter>
    </defs>
</svg>
